<svg id="Logo" xmlns="http://www.w3.org/2000/svg" viewBox="0 0 607.53 201.71"><defs><style>.cls-1{fill:#fff;}</style></defs><title>Kenmore_ProtectionPlanLogo_H_White</title><path class="cls-1" d="M216.14,144.45a11.35,11.35,0,0,1,4,.66,9,9,0,0,1,3.06,1.87,8.27,8.27,0,0,1,2,2.91,9.89,9.89,0,0,1,.7,3.8,10.61,10.61,0,0,1-.24,2.27,11,11,0,0,1-.67,2.1,9.71,9.71,0,0,1-1.06,1.84,7.7,7.7,0,0,1-1.37,1.46,11.46,11.46,0,0,1-1.43.93,10,10,0,0,1-2,.8,19.09,19.09,0,0,1-2.89.57,32.94,32.94,0,0,1-4.09.22v12.25h-6.78V144.45ZM212,158.25h2.07a5.87,5.87,0,0,0,2-.33,4.2,4.2,0,0,0,1.47-.89,3.85,3.85,0,0,0,.9-1.33,4.16,4.16,0,0,0,.31-1.6,3.56,3.56,0,0,0-1.36-3,6.31,6.31,0,0,0-3.92-1h-.65a6.37,6.37,0,0,0-.87.08Z"/><path class="cls-1" d="M254,176.12h-7.79l-8.9-16.5v16.5h-6.87V144.45h10.37a12.69,12.69,0,0,1,4.28.68,9.08,9.08,0,0,1,3.23,1.94,8.43,8.43,0,0,1,2.05,3.06,10.84,10.84,0,0,1,.71,4,12.64,12.64,0,0,1-.25,2.51,10.41,10.41,0,0,1-.8,2.4,8.71,8.71,0,0,1-1.4,2.1,8.15,8.15,0,0,1-2,1.63ZM238.69,159a5.64,5.64,0,0,0,4-1.27,4.55,4.55,0,0,0,1.33-3.46,3.73,3.73,0,0,0-1.39-3.09,6,6,0,0,0-3.85-1.11h-1.54V159Z"/><path class="cls-1" d="M254.92,160.61a17.37,17.37,0,0,1,.53-4.31,17.05,17.05,0,0,1,1.52-3.92,16.24,16.24,0,0,1,2.4-3.35,15.84,15.84,0,0,1,3.15-2.62,15,15,0,0,1,8.06-2.3,17.09,17.09,0,0,1,6.52,1.22,15.19,15.19,0,0,1,5.14,3.41,15.69,15.69,0,0,1,3.38,5.23,17.79,17.79,0,0,1,1.22,6.68,17.38,17.38,0,0,1-1.21,6.51,16.07,16.07,0,0,1-3.34,5.23,15.38,15.38,0,0,1-5.09,3.49,16.14,16.14,0,0,1-6.43,1.27,15.94,15.94,0,0,1-6.38-1.25,15,15,0,0,1-5-3.46,15.87,15.87,0,0,1-3.28-5.25A18,18,0,0,1,254.92,160.61Zm15.94-10.18a8.13,8.13,0,0,0-6.39,3,10.07,10.07,0,0,0-1.8,3.29,12.88,12.88,0,0,0-.64,4.13,12.23,12.23,0,0,0,.65,4.08,9.77,9.77,0,0,0,1.81,3.2,8,8,0,0,0,2.76,2.07,8.32,8.32,0,0,0,3.51.74,8.62,8.62,0,0,0,3.67-.76,8,8,0,0,0,2.8-2.13,10,10,0,0,0,1.8-3.26,12.76,12.76,0,0,0,.64-4.12,13,13,0,0,0-.64-4.2,9.43,9.43,0,0,0-1.8-3.21,7.92,7.92,0,0,0-2.79-2.05A8.72,8.72,0,0,0,270.86,150.43Z"/><path class="cls-1" d="M309.58,144.45v6.73h-7.26v24.94h-6.83V151.18h-7.21v-6.73Z"/><path class="cls-1" d="M332.37,144.45v6.27h-11v6.39h11v6.17h-11v6.56h11v6.27H314.52V144.45Z"/><path class="cls-1" d="M362.69,174.24a16.44,16.44,0,0,1-4.58,2.18,19.69,19.69,0,0,1-5.64.74,16.7,16.7,0,0,1-6.61-1.25,14.4,14.4,0,0,1-5-3.48,15.48,15.48,0,0,1-3.17-5.27,19.83,19.83,0,0,1-.65-10.78,17.17,17.17,0,0,1,1.36-3.88,15.31,15.31,0,0,1,2.25-3.37,13.93,13.93,0,0,1,3.15-2.64,15.7,15.7,0,0,1,4-1.74,18.24,18.24,0,0,1,4.92-.63,25.26,25.26,0,0,1,2.81.14,17.84,17.84,0,0,1,2.5.46,19,19,0,0,1,2.39.8q1.18.48,2.48,1.16l-4.29,5.09q-.72-.36-1.41-.64a9.9,9.9,0,0,0-1.4-.45,12.29,12.29,0,0,0-1.48-.25,15.78,15.78,0,0,0-1.69-.08,8.72,8.72,0,0,0-3.92.83,8,8,0,0,0-2.8,2.27,10,10,0,0,0-1.69,3.33,13.81,13.81,0,0,0-.57,4,11.53,11.53,0,0,0,.68,4,9.67,9.67,0,0,0,1.89,3.2,8.76,8.76,0,0,0,2.92,2.12,9,9,0,0,0,3.75.77,15.07,15.07,0,0,0,1.82-.1,7.69,7.69,0,0,0,1.42-.3,7.48,7.48,0,0,0,1.19-.49q.55-.29,1.13-.65Z"/><path class="cls-1" d="M386.19,144.45v6.73h-7.26v24.94h-6.83V151.18H364.9v-6.73Z"/><path class="cls-1" d="M397.74,144.45v31.67h-6.83V144.45Z"/><path class="cls-1" d="M403.16,160.61a17.37,17.37,0,0,1,.53-4.31,17.05,17.05,0,0,1,1.52-3.92,16.24,16.24,0,0,1,2.4-3.35,15.84,15.84,0,0,1,3.15-2.62,15,15,0,0,1,8.06-2.3,17.09,17.09,0,0,1,6.52,1.22,15.19,15.19,0,0,1,5.14,3.41,15.69,15.69,0,0,1,3.38,5.23,17.79,17.79,0,0,1,1.22,6.68,17.38,17.38,0,0,1-1.21,6.51,16.07,16.07,0,0,1-3.34,5.23,15.38,15.38,0,0,1-5.09,3.49,16.14,16.14,0,0,1-6.43,1.27,15.94,15.94,0,0,1-6.38-1.25,15,15,0,0,1-5-3.46,15.87,15.87,0,0,1-3.28-5.25A18,18,0,0,1,403.16,160.61Zm15.94-10.18a8.13,8.13,0,0,0-6.39,3,10.07,10.07,0,0,0-1.8,3.29,12.88,12.88,0,0,0-.64,4.13,12.23,12.23,0,0,0,.65,4.08,9.77,9.77,0,0,0,1.81,3.2,8,8,0,0,0,2.76,2.07,8.32,8.32,0,0,0,3.51.74,8.62,8.62,0,0,0,3.67-.76,8,8,0,0,0,2.8-2.13,10,10,0,0,0,1.8-3.26,12.76,12.76,0,0,0,.64-4.12,13,13,0,0,0-.64-4.2,9.43,9.43,0,0,0-1.8-3.21,7.92,7.92,0,0,0-2.79-2.05A8.72,8.72,0,0,0,419.11,150.43Z"/><path class="cls-1" d="M467.25,144.45v31.67h-6.64l-14.34-20.5h-.19v20.5h-6.83V144.45H446l14.37,20.36h.19V144.45Z"/><path class="cls-1" d="M498.1,144.45a11.35,11.35,0,0,1,4,.66,9,9,0,0,1,3.06,1.87,8.27,8.27,0,0,1,2,2.91,9.89,9.89,0,0,1,.7,3.8,10.61,10.61,0,0,1-.24,2.27,11,11,0,0,1-.67,2.1,9.71,9.71,0,0,1-1.06,1.84,7.7,7.7,0,0,1-1.37,1.46,11.46,11.46,0,0,1-1.43.93,10,10,0,0,1-2,.8,19.09,19.09,0,0,1-2.89.57,32.94,32.94,0,0,1-4.09.22v12.25h-6.78V144.45Zm-4.15,13.8H496a5.87,5.87,0,0,0,2-.33,4.2,4.2,0,0,0,1.47-.89,3.85,3.85,0,0,0,.9-1.33,4.16,4.16,0,0,0,.31-1.6,3.56,3.56,0,0,0-1.36-3,6.31,6.31,0,0,0-3.92-1h-.65a6.37,6.37,0,0,0-.87.08Z"/><path class="cls-1" d="M519.13,144.45v24.84h9.33v6.83H512.35V144.45Z"/><path class="cls-1" d="M548.71,144.45l12.93,31.67h-6.85l-2.58-6.22H540.05l-2.46,6.22h-6.83l12.66-31.67Zm-6.32,19.71h7.5l-3.81-9.91Z"/><path class="cls-1" d="M593.45,144.45v31.67h-6.64l-14.34-20.5h-.19v20.5h-6.83V144.45h6.73l14.37,20.36h.19V144.45Z"/><path class="cls-1" d="M205.44,43.21h11.11v81.36H205.44Zm67.18,81.36H256.85L218.34,80.51l38.51-37.3h15.52L233.15,81.14Z"/><path class="cls-1" d="M293.6,115.94a22.27,22.27,0,0,0,4.6-.44,17.45,17.45,0,0,0,4-1.37,17.21,17.21,0,0,0,3.62-2.43,35.21,35.21,0,0,0,3.5-3.61l7,7.6a26.46,26.46,0,0,1-10.28,7.72A32.93,32.93,0,0,1,293,126a27.43,27.43,0,0,1-10.88-2.14,26.4,26.4,0,0,1-8.68-5.91,27.65,27.65,0,0,1-5.78-8.88A28.77,28.77,0,0,1,265.5,98a31.8,31.8,0,0,1,1.76-10.63,25.42,25.42,0,0,1,5.17-8.79,24.54,24.54,0,0,1,8.43-6,30.85,30.85,0,0,1,21.94-.36,24.2,24.2,0,0,1,8.31,5.3,24.49,24.49,0,0,1,5.5,8.3,28.71,28.71,0,0,1,2,10.86c0,.85,0,1.75-.1,2.68s-.16,1.88-.29,2.81h-42a23,23,0,0,0,1.49,4.5,15.13,15.13,0,0,0,3.07,4.47,15.55,15.55,0,0,0,5.14,3.42,19.71,19.71,0,0,0,7.73,1.33M292.39,79A16.28,16.28,0,0,0,286,80.18a14.37,14.37,0,0,0-4.7,3.16,16.06,16.06,0,0,0-3.19,4.73,25.41,25.41,0,0,0-1.78,5.77h31a19.85,19.85,0,0,0-1.47-5.62,16.09,16.09,0,0,0-3.07-4.72,14.46,14.46,0,0,0-4.53-3.25A13.78,13.78,0,0,0,292.39,79"/><path class="cls-1" d="M332.77,78.65a17.71,17.71,0,0,1,4.56-4.72,19.24,19.24,0,0,1,4.82-2.43,18.81,18.81,0,0,1,4.48-.92c1.41-.11,2.58-.16,3.51-.16a17.68,17.68,0,0,1,6.68,1.27,18,18,0,0,1,5.52,3.48,16.82,16.82,0,0,1,3.73,5.14,14.54,14.54,0,0,1,1.37,6.19v38.06H356.21V89.76a10.94,10.94,0,0,0-.7-4,8.87,8.87,0,0,0-5-5.17,10.25,10.25,0,0,0-4-.74,11.47,11.47,0,0,0-5.26,1.25,13.72,13.72,0,0,0-4.32,3.45A17.09,17.09,0,0,0,334,89.73a18.24,18.24,0,0,0-1.08,6.35v28.48h-11V71.88h10.85v6.77"/><path class="cls-1" d="M436.33,70.42a17.59,17.59,0,0,1,6.7,1.27,17.25,17.25,0,0,1,5.43,3.48,16.94,16.94,0,0,1,3.64,5.08,14.29,14.29,0,0,1,1.34,6.13v38.18H442.32V89.76a10.85,10.85,0,0,0-.73-4,9.94,9.94,0,0,0-2-3.2,8.74,8.74,0,0,0-3.13-2.07,10.9,10.9,0,0,0-4-.73,12.74,12.74,0,0,0-4.79.95,14.13,14.13,0,0,0-4.24,2.68,13.72,13.72,0,0,0-3,4.06,11.33,11.33,0,0,0-1.15,5.08v32H408.09V89.76a10.91,10.91,0,0,0-.73-4,9.89,9.89,0,0,0-2-3.2,8.87,8.87,0,0,0-3.06-2.07,10.24,10.24,0,0,0-3.9-.73A11.55,11.55,0,0,0,393,81a14,14,0,0,0-4.35,3.48,17.07,17.07,0,0,0-2.94,5.14,17.89,17.89,0,0,0-1.08,6.26v28.67h-11V71.88h10.86v6.77a17.54,17.54,0,0,1,4.56-4.72,18.9,18.9,0,0,1,4.85-2.43,19.63,19.63,0,0,1,4.54-.92c1.43-.1,2.61-.15,3.55-.15a18.6,18.6,0,0,1,4.85.63,17,17,0,0,1,4.38,1.85,17.78,17.78,0,0,1,3.61,2.87,15.84,15.84,0,0,1,2.62,3.65,20.17,20.17,0,0,1,5-5.14,21.77,21.77,0,0,1,5.27-2.68,19.71,19.71,0,0,1,4.82-1c1.5-.1,2.73-.15,3.71-.15"/><path class="cls-1" d="M484.22,70.42a29.72,29.72,0,0,1,10.88,2,27.65,27.65,0,0,1,9,5.65,27.15,27.15,0,0,1,6.16,8.72,26.79,26.79,0,0,1,2.3,11.2,28.3,28.3,0,0,1-2.23,11.4,27.65,27.65,0,0,1-6,8.84,27.07,27.07,0,0,1-8.81,5.75A27.6,27.6,0,0,1,485,126,31.56,31.56,0,0,1,473.36,124a27.2,27.2,0,0,1-9.13-5.78,25.86,25.86,0,0,1-6-8.84A29.12,29.12,0,0,1,456.12,98a26.32,26.32,0,0,1,2.29-11,28.28,28.28,0,0,1,6.2-8.75,28.76,28.76,0,0,1,9-5.78,27.93,27.93,0,0,1,10.64-2.07m.51,10.21a17.83,17.83,0,0,0-7,1.35,16.73,16.73,0,0,0-5.52,3.7,17.32,17.32,0,0,0-3.67,5.63,18.37,18.37,0,0,0-1.34,7.09,17.89,17.89,0,0,0,1.34,7,16.77,16.77,0,0,0,3.7,5.52,16.43,16.43,0,0,0,5.56,3.61,18.31,18.31,0,0,0,6.9,1.29,16.44,16.44,0,0,0,11.87-5,17.27,17.27,0,0,0,3.65-5.68,19.36,19.36,0,0,0,1.34-7.28,17.3,17.3,0,0,0-1.31-6.71,17.79,17.79,0,0,0-3.57-5.49,16.58,16.58,0,0,0-12-5"/><path class="cls-1" d="M545,80.76a8.66,8.66,0,0,0-2.08-.51,18.08,18.08,0,0,0-2.26-.14,11.57,11.57,0,0,0-5.34,1.25A13.2,13.2,0,0,0,531,84.81a16.21,16.21,0,0,0-2.86,5.24,21.05,21.05,0,0,0-1,6.68v27.84H516V71.88H526.9v6.65a16.82,16.82,0,0,1,4.5-4.64,19.72,19.72,0,0,1,9.46-3.31c1.42-.11,2.6-.16,3.54-.16a17.27,17.27,0,0,1,3.58.38l-3,10"/><path class="cls-1" d="M570.76,115.94a22.31,22.31,0,0,0,4.61-.44,17.36,17.36,0,0,0,4-1.37A17,17,0,0,0,583,111.7a33.91,33.91,0,0,0,3.52-3.61l7,7.6a26.41,26.41,0,0,1-10.28,7.72A32.87,32.87,0,0,1,570.13,126a27.48,27.48,0,0,1-10.9-2.14,26.55,26.55,0,0,1-8.69-5.91,27.88,27.88,0,0,1-5.77-8.88A28.94,28.94,0,0,1,542.66,98a31.91,31.91,0,0,1,1.76-10.63,25.38,25.38,0,0,1,5.17-8.79,24.46,24.46,0,0,1,8.43-6,28.39,28.39,0,0,1,11.53-2.2A28.73,28.73,0,0,1,580,72.26a24.16,24.16,0,0,1,8.3,5.3,24.45,24.45,0,0,1,5.49,8.3,28.56,28.56,0,0,1,2,10.86c0,.85,0,1.75-.1,2.68s-.16,1.88-.28,2.81h-42a22.89,22.89,0,0,0,1.5,4.5,15.13,15.13,0,0,0,3.07,4.47,15.46,15.46,0,0,0,5.14,3.42,19.67,19.67,0,0,0,7.72,1.33M569.55,79a16.25,16.25,0,0,0-6.35,1.15,14.42,14.42,0,0,0-4.7,3.16,15.69,15.69,0,0,0-3.19,4.73,25.74,25.74,0,0,0-1.79,5.77h31A19.76,19.76,0,0,0,583,88.23,16,16,0,0,0,580,83.51a14.55,14.55,0,0,0-4.53-3.25A13.75,13.75,0,0,0,569.55,79"/><path class="cls-1" d="M607.53,119.59a5,5,0,1,1-5-5A5,5,0,0,1,607.53,119.59Zm-9.11,0a4.15,4.15,0,1,0,4.15-4.14A4.15,4.15,0,0,0,598.41,119.59Zm2-2.59h1.83a3.45,3.45,0,0,1,1.45.17,1.42,1.42,0,0,1,.84,1.23,1.52,1.52,0,0,1-1.52,1.54v0c.4.15.69.47,1.24,1.33l.65,1h-1l-.48-.84c-.68-1.2-.92-1.43-1.58-1.43h-.51v2.26h-.87Zm1.91,2.33c.89,0,1.3-.24,1.3-.81s-.36-.79-1.36-.79h-1v1.6Z"/><path class="cls-1" d="M157.11,54.37c-.59,16.6-2.75,32.93-9,49.49-9.87,26-29.37,50-59.43,73h0c-30.06-23-49.56-47-59.43-73-6.29-16.56-8.45-32.89-9-49.49H.12c.62,18.46,3,37.31,10.35,56.6C23,144,48.61,173.75,88.64,201.71h0c40-28,65.64-57.7,78.18-90.74,7.32-19.28,9.72-38.14,10.34-56.6Z"/><path class="cls-1" d="M88.64,0C75.62,8,46.1,22.6.37,24.77.32,27.19.27,29.6.22,32,.14,35.71.06,39.45,0,43.2H20.05C50.9,39.4,73.82,30.53,88.64,23m0,0h0c14.82,7.57,37.74,16.44,68.58,20.24h20.06c-.06-3.76-.14-7.5-.22-11.22-.06-2.38-.11-4.79-.16-7.21C131.18,22.6,101.66,8,88.64,0h0"/><path class="cls-1" d="M61.27,88.67c-8.94-3.26-16-2-23.76,4.89.53,2.34,1.14,4.7,1.83,7,8-3.59,15.72-7.56,23.26-11.44Zm3.31,1.23c-2.81,1.65-5.63,3.37-8.49,5.12-5.1,3.12-10.3,6.28-15.65,9.09a84.49,84.49,0,0,0,4.19,10.25c13.54,27.57,44,46.82,44,46.82h0s30.47-19.25,44-46.82q.86-1.74,1.62-3.53c-22.55-1.4-45.06-11.67-63.77-18.71Zm26.24-11.2c-8.28,1.7-16,5.38-23.83,9.81,25.78,11.36,48.62,17,69.34,17.09a102.94,102.94,0,0,0,3.07-10.37C125.61,83.06,111.88,74.37,90.81,78.71Zm52-27.8a139.46,139.46,0,0,1-28-4.38A139.44,139.44,0,0,1,88.64,35.71,139.44,139.44,0,0,1,62.47,46.53a139.46,139.46,0,0,1-28,4.38,153.77,153.77,0,0,0,1.33,33.7c8.64-4.37,17.3-2.38,27.17,2.13.77.35,1.52.68,2.29,1,7.15-3.8,13.6-7.63,19.81-10.2,23.17-9.58,40.23-9.8,57,2.37A152.49,152.49,0,0,0,142.79,50.91Z"/></svg>